HIERARCHY
ROOT Hips
{
	OFFSET 0.000000 0.000000 0.000000
	CHANNELS 6 Xposition Yposition Zposition Zrotation Yrotation Xrotation 
	JOINT LowerBack
	{
		OFFSET 0.000000 0.000000 0.000000
		CHANNELS 3 Zrotation Yrotation Xrotation
		JOINT Spine
		{
			OFFSET 0.028270 2.035590 -0.193380
			CHANNELS 3 Zrotation Yrotation Xrotation
			JOINT Spine1
			{
				OFFSET 0.056720 2.048850 -0.042750
				CHANNELS 3 Zrotation Yrotation Xrotation
				JOINT Neck
				{
					OFFSET 0.000000 0.000000 0.000000
					CHANNELS 3 Zrotation Yrotation Xrotation
					JOINT Neck1
					{
						OFFSET -0.054170 1.746240 0.172020
						CHANNELS 3 Zrotation Yrotation Xrotation
						JOINT Head
						{
							OFFSET 0.104070 1.761360 -0.123970
							CHANNELS 3 Zrotation Yrotation Xrotation
							End Site
							{
								OFFSET 0.000000 0.000000 0.000000
							}
						}
					}
				}
				JOINT LeftShoulder
				{
					OFFSET 0.000000 0.000000 0.000000
					CHANNELS 3 Zrotation Yrotation Xrotation
					JOINT LeftArm
					{
						OFFSET 3.362410 1.200890 -0.311210
						CHANNELS 3 Zrotation Yrotation Xrotation
						JOINT LeftForeArm
						{
							OFFSET 4.983000 -0.000000 -0.000000
							CHANNELS 3 Zrotation Yrotation Xrotation
							JOINT LeftHand
							{
								OFFSET 3.483560 -0.000000 -0.000000
								CHANNELS 3 Zrotation Yrotation Xrotation
								JOINT LeftFingerBase
								{
									OFFSET 0.000000 0.000000 0.000000
									CHANNELS 3 Zrotation Yrotation Xrotation
									JOINT LeftHandIndex1
									{
										OFFSET 0.715260 -0.000000 -0.000000
										CHANNELS 3 Zrotation Yrotation Xrotation
										End Site
										{
											OFFSET 0.000000 0.000000 0.000000
										}
									}
								}
								JOINT LThumb
								{
									OFFSET 0.000000 0.000000 0.000000
									CHANNELS 3 Zrotation Yrotation Xrotation
									End Site
									{
										OFFSET 0.000000 0.000000 0.000000
									}
								}
							}
						}
					}
				}
				JOINT RightShoulder
				{
					OFFSET 0.000000 0.000000 0.000000
					CHANNELS 3 Zrotation Yrotation Xrotation
					JOINT RightArm
					{
						OFFSET -3.136600 1.374050 -0.404650
						CHANNELS 3 Zrotation Yrotation Xrotation
						JOINT RightForeArm
						{
							OFFSET -5.241900 -0.000000 -0.000000
							CHANNELS 3 Zrotation Yrotation Xrotation
							JOINT RightHand
							{
								OFFSET -3.444170 -0.000000 -0.000000
								CHANNELS 3 Zrotation Yrotation Xrotation
								JOINT RightFingerBase
								{
									OFFSET 0.000000 0.000000 0.000000
									CHANNELS 3 Zrotation Yrotation Xrotation
									JOINT RightHandIndex1
									{
										OFFSET -0.622530 -0.000000 -0.000000
										CHANNELS 3 Zrotation Yrotation Xrotation
										End Site
										{
											OFFSET 0.000000 0.000000 0.000000
										}
									}
								}
								JOINT RThumb
								{
									OFFSET 0.000000 0.000000 0.000000
									CHANNELS 3 Zrotation Yrotation Xrotation
									End Site
									{
										OFFSET 0.000000 0.000000 0.000000
									}
								}
							}
						}
					}
				}
			}
		}
	}
}
}
MOTION
Frames: 15
Frame Time: 0.008333
-11.764779 17.029670 -1.368736 1.376761 87.067639 12.529446 1.855906 -2.619351 -2.691946 -0.515364 -2.920331 -3.453446 -7.894489 -2.992801 0.119943 10.554749 -4.443854 -5.570720 -4.618727 -0.363604 0.506914 0.000000 0.000000 0.000000 -4.418334 2.668631 2.199641 -55.395546 -16.630503 10.182848 -2.845579 -41.852179 -0.016931 7.265983 -0.068616 -0.013220 -0.143892 0.155323 0.000000 0.000000 0.000000 0.000000 0.000000 0.000000 0.000000 20.665100 -3.216665 1.308600 68.198045 -1.172688 -8.697940 3.715570 12.588342 0.006813 -0.338308 4.335082 -0.016017 0.086658 -0.051343 -0.000000 0.000000 0.000000 0.000000 0.000000 0.000000 0.000000 
-11.575007 17.044979 -1.347653 -8.027594 86.942618 2.988746 2.432359 -2.484517 -2.702641 -0.393827 -2.831595 -3.470371 -7.864362 -2.906808 0.100409 10.422757 -4.379421 -5.583259 -4.617888 -0.363643 0.506493 0.000000 0.000000 0.000000 -4.606465 2.911320 2.145555 -56.130938 -16.017446 10.241378 -2.843069 -41.521668 -0.016291 7.225067 -0.062720 -0.012449 -0.140510 0.150515 0.000000 0.000000 0.000000 0.000000 0.000000 0.000000 0.000000 20.492618 -3.063026 1.294497 68.291721 -1.009935 -8.491063 3.740815 12.637238 0.006912 -0.283156 4.329451 -0.013911 0.087314 -0.051872 -0.000000 0.000000 0.000000 0.000000 0.000000 0.000000 0.000000 
-11.387999 17.061049 -1.326467 -17.252992 86.798158 -6.366371 3.021872 -2.364875 -2.694248 -0.271491 -2.758023 -3.483916 -7.833983 -2.835564 0.078916 10.303600 -4.312005 -5.597557 -4.615843 -0.363560 0.505306 0.000000 0.000000 0.000000 -4.755842 3.127194 2.096194 -56.907966 -15.388448 10.281792 -2.841064 -41.107718 -0.015656 7.169055 -0.049740 -0.011282 -0.136826 0.145791 0.000000 0.000000 0.000000 0.000000 0.000000 0.000000 0.000000 20.327521 -2.911695 1.282308 68.394409 -0.806407 -8.235870 3.762069 12.720339 0.007005 -0.230618 4.325823 -0.011905 0.087856 -0.052497 -0.000000 0.000000 0.000000 0.000000 0.000000 0.000000 0.000000 
-11.204053 17.077551 -1.305293 -26.067541 86.653354 -15.305902 3.603222 -2.266931 -2.668958 -0.152566 -2.704248 -3.495745 -7.803297 -2.783914 0.049658 10.195378 -4.217612 -5.603898 -4.613459 -0.363501 0.505976 0.000000 0.000000 0.000000 -4.872967 3.302667 2.056950 -57.709862 -14.734982 10.303866 -2.839775 -40.622036 -0.015035 7.095099 -0.024928 -0.009318 -0.132886 0.141198 0.000000 0.000000 0.000000 0.000000 0.000000 0.000000 0.000000 20.167191 -2.741296 1.272106 68.514161 -0.591242 -8.000931 3.779139 12.847740 0.007093 -0.166638 4.324740 -0.009398 0.088140 -0.053275 -0.000000 0.000000 0.000000 0.000000 0.000000 0.000000 0.000000 
-11.023332 17.094405 -1.283271 -33.862791 86.529279 -23.220661 4.115214 -2.194056 -2.629760 -0.048994 -2.668985 -3.504099 -7.773181 -2.750501 0.019627 10.109194 -4.124816 -5.610978 -4.611326 -0.363445 0.506063 0.000000 0.000000 0.000000 -4.950209 3.444492 2.026137 -58.521929 -14.076577 10.311580 -2.840380 -40.060840 -0.014409 6.999312 0.009963 -0.006758 -0.128780 0.136682 0.000000 0.000000 0.000000 0.000000 0.000000 0.000000 0.000000 20.033542 -2.582413 1.262105 68.640383 -0.335206 -7.714065 3.789530 13.013938 0.007171 -0.108890 4.329476 -0.007191 0.088190 -0.054136 -0.000000 0.000000 0.000000 0.000000 0.000000 0.000000 0.000000 
-10.845770 17.111554 -1.260273 -40.798120 86.436167 -30.268120 4.545662 -2.142799 -2.581862 0.037128 -2.648225 -3.510123 -7.744954 -2.731577 -0.011742 10.046421 -4.029235 -5.616409 -4.610185 -0.363469 0.506275 0.000000 0.000000 0.000000 -4.994997 3.553028 2.004533 -59.328385 -13.415562 10.308208 -2.843235 -39.430396 -0.013773 6.879552 0.057487 -0.003499 -0.124545 0.132200 0.000000 0.000000 0.000000 0.000000 0.000000 0.000000 0.000000 19.930725 -2.428982 1.252071 68.772271 -0.048406 -7.396331 3.793015 13.222604 0.007240 -0.054721 4.342891 -0.005183 0.087963 -0.055118 -0.000000 0.000000 0.000000 0.000000 0.000000 0.000000 0.000000 
-10.671200 17.129085 -1.236040 -47.089080 86.384950 -36.659948 4.885747 -2.110593 -2.531870 0.104116 -2.639237 -3.514637 -7.719969 -2.724467 -0.042789 10.009316 -3.934636 -5.620708 -4.610674 -0.363623 0.506527 0.000000 0.000000 0.000000 -5.013466 3.632245 1.991713 -60.115172 -12.759345 10.297615 -2.848973 -38.733636 -0.013124 6.734767 0.119500 0.000558 -0.120237 0.127703 0.000000 0.000000 0.000000 0.000000 0.000000 0.000000 0.000000 19.865070 -2.283843 1.241229 68.906478 0.266882 -7.047908 3.789244 13.474798 0.007301 -0.006732 4.367975 -0.003275 0.087457 -0.056231 -0.000000 0.000000 0.000000 0.000000 0.000000 0.000000 0.000000 
-10.499326 17.147140 -1.210467 -53.024698 86.382801 -42.679694 5.133431 -2.095339 -2.487677 0.151568 -2.640372 -3.518584 -7.699133 -2.727473 -0.071240 9.998516 -3.846705 -5.624927 -4.613202 -0.363940 0.506609 0.000000 0.000000 0.000000 -5.013214 3.687418 1.986693 -60.871254 -12.115815 10.283460 -2.858276 -37.971791 -0.012462 6.565001 0.197158 0.005314 -0.115912 0.123151 0.000000 0.000000 0.000000 0.000000 0.000000 0.000000 0.000000 19.840293 -2.152394 1.228531 69.039036 0.609881 -6.665408 3.778173 13.769672 0.007360 0.031104 4.408026 -0.001866 0.086698 -0.057478 -0.000000 0.000000 0.000000 0.000000 0.000000 0.000000 0.000000 
-10.329849 17.165908 -1.183482 -58.882499 86.433298 -48.600471 5.288109 -2.094927 -2.456594 0.179300 -2.650024 -3.523336 -7.682919 -2.738994 -0.096935 10.013134 -3.763448 -5.627477 -4.618164 -0.364477 0.507012 0.000000 0.000000 0.000000 -5.000613 3.720650 1.989084 -61.587692 -11.487076 10.266314 -2.871573 -37.147457 -0.011793 6.372303 0.292035 0.010770 -0.111619 0.118517 0.000000 0.000000 0.000000 0.000000 0.000000 0.000000 0.000000 19.856866 -2.031960 1.213368 69.169191 0.969840 -6.265377 3.759947 14.108843 0.007415 0.059386 4.464329 -0.000657 0.085686 -0.058873 -0.000000 0.000000 0.000000 0.000000 0.000000 0.000000 0.000000 
-10.162347 17.185571 -1.155170 -64.964382 86.532308 -54.719305 5.354475 -2.107079 -2.444809 0.188320 -2.666695 -3.529241 -7.670798 -2.757358 -0.116368 10.050519 -3.695522 -5.631678 -4.625067 -0.365182 0.506903 0.000000 0.000000 0.000000 -4.983321 3.741879 1.996715 -62.260923 -10.884724 10.248704 -2.889333 -36.257981 -0.011125 6.160207 0.404120 0.016826 -0.107424 0.113792 0.000000 0.000000 0.000000 0.000000 0.000000 0.000000 0.000000 19.911753 -1.932918 1.194593 69.293440 1.352841 -5.830924 3.734967 14.487057 0.007467 0.071096 4.538799 -0.000147 0.084504 -0.060402 -0.000000 0.000000 0.000000 0.000000 0.000000 0.000000 0.000000 
-9.996543 17.206262 -1.125699 -71.494416 86.671737 -61.259751 5.335983 -2.128534 -2.455024 0.179237 -2.687522 -3.537541 -7.662094 -2.779773 -0.132207 10.106402 -3.633528 -5.633217 -4.633875 -0.366098 0.507482 0.000000 0.000000 0.000000 -4.965310 3.748232 2.009495 -62.889103 -10.300207 10.223113 -2.911061 -35.309553 -0.010470 5.933408 0.534314 0.023283 -0.103334 0.108975 0.000000 0.000000 0.000000 0.000000 0.000000 0.000000 0.000000 19.998053 -1.844194 1.172655 69.415154 1.741072 -5.392441 3.703802 14.907108 0.007513 0.071321 4.628910 -0.000136 0.083137 -0.062093 -0.000000 0.000000 0.000000 0.000000 0.000000 0.000000 0.000000 
-9.832186 17.228004 -1.095321 -78.634935 86.837332 -68.385342 5.239032 -2.155479 -2.485078 0.153498 -2.708952 -3.546656 -7.655184 -2.802444 -0.139609 10.176393 -3.592113 -5.638522 -4.643183 -0.367064 0.506971 0.000000 0.000000 0.000000 -4.951929 3.758944 2.024427 -63.474569 -9.755529 10.194291 -2.937222 -34.293169 -0.009843 5.698802 0.679553 0.029940 -0.099450 0.104104 0.000000 0.000000 0.000000 0.000000 0.000000 0.000000 0.000000 20.107901 -1.778718 1.146573 69.531196 2.150041 -4.918765 3.667150 15.359820 0.007550 0.051785 4.733887 -0.000824 0.081710 -0.063915 -0.000000 0.000000 0.000000 0.000000 0.000000 0.000000 0.000000 
-9.669048 17.250762 -1.064344 -86.427055 87.013812 -76.139043 5.071206 -2.182447 -2.534672 0.112651 -2.725934 -3.558147 -7.648732 -2.820571 -0.144780 10.253835 -3.554396 -5.639954 -4.652652 -0.368127 0.507489 0.000000 0.000000 0.000000 -4.944999 3.761880 2.041952 -64.020253 -9.224950 10.144348 -2.965916 -33.225954 -0.009256 5.461959 0.841339 0.036798 -0.095702 0.099180 0.000000 0.000000 0.000000 0.000000 0.000000 0.000000 0.000000 20.228406 -1.716470 1.118321 69.648269 2.555312 -4.449500 3.626060 15.850000 0.007577 0.023549 4.847991 -0.002012 0.080183 -0.065913 -0.000000 0.000000 0.000000 0.000000 0.000000 0.000000 0.000000 
-9.507031 17.274340 -1.033039 -94.707197 87.186960 -84.363874 4.841164 -2.203304 -2.595640 0.058772 -2.732413 -3.570226 -7.641179 -2.828086 -0.146630 10.333796 -3.525519 -5.640436 -4.660956 -0.369150 0.508167 0.000000 0.000000 0.000000 -4.945735 3.768594 2.060068 -64.531066 -8.716246 10.070354 -2.996590 -32.108375 -0.008718 5.230633 1.015809 0.043556 -0.092136 0.094242 0.000000 0.000000 0.000000 0.000000 0.000000 0.000000 0.000000 20.349376 -1.659056 1.088465 69.766360 2.964077 -3.967398 3.581451 16.372326 0.007590 -0.014408 4.967027 -0.003699 0.078635 -0.068080 -0.000000 0.000000 0.000000 0.000000 0.000000 0.000000 0.000000 
-9.346073 17.298476 -1.001682 -103.153955 87.348741 -92.745093 4.560446 -2.211397 -2.661561 -0.005384 -2.722224 -3.582796 -7.631431 -2.819090 -0.149344 10.411214 -3.498343 -5.636492 -4.667396 -0.370106 0.509940 0.000000 0.000000 0.000000 -4.953319 3.771771 2.078299 -65.012194 -8.210905 9.956327 -3.027379 -30.957207 -0.008236 5.010783 1.201474 0.050214 -0.088696 0.089299 0.000000 0.000000 0.000000 0.000000 0.000000 0.000000 0.000000 20.460122 -1.595627 1.059266 69.887871 3.367512 -3.478595 3.534365 16.927484 0.007588 -0.055378 5.084973 -0.005486 0.077073 -0.070436 -0.000000 0.000000 0.000000 0.000000 0.000000 0.000000 0.000000 
